<?xml version="1.0" encoding="UTF-8" standalone="no"?>
<!DOCTYPE svg PUBLIC "-//W3C//DTD SVG 1.1//EN" "http://www.w3.org/Graphics/SVG/1.1/DTD/svg11.dtd">
<svg width="100%" height="100%" viewBox="0 0 121 129" version="1.1" xmlns="http://www.w3.org/2000/svg" xmlns:xlink="http://www.w3.org/1999/xlink" xml:space="preserve" xmlns:serif="http://www.serif.com/" style="fill-rule:evenodd;clip-rule:evenodd;stroke-linecap:round;stroke-linejoin:round;stroke-miterlimit:10;">
    <g transform="matrix(13.8889,0,0,13.8889,0,0)">
        <g transform="matrix(1,0,0,1,0,-0.039565)">
            <path d="M1.219,0.975C0.806,1.207 0.58,1.769 0.543,2.252C0.46,3.351 0.241,6.54 0.722,7.57C1.131,8.445 3.083,9.334 3.43,8.43C3.873,7.279 3.748,1.906 3.379,0.663C3.167,-0.052 1.692,0.711 1.219,0.975Z" style="fill:rgb(200,185,185);"/>
        </g>
        <g transform="matrix(1,0,0,1,0,0.003694)">
            <path d="M8.13,2.46L8.13,6.779C8.13,7.828 7.278,8.68 6.229,8.68L2.427,8.68C1.378,8.68 0.526,7.828 0.526,6.779L0.526,2.46C0.526,1.411 1.378,0.559 2.427,0.559L6.229,0.559C7.278,0.559 8.13,1.411 8.13,2.46Z" style="fill:none;fill-rule:nonzero;stroke:black;stroke-width:0.7px;"/>
        </g>
        <g transform="matrix(0.00585077,0.999983,0.999983,-0.00585077,-1.0498,0.99984)">
            <path d="M-0.414,4.668L7.655,4.668L7.655,4.583L-0.196,4.629L-0.414,4.668Z" style="stroke:black;stroke-width:0.7px;stroke-linecap:butt;stroke-miterlimit:2;"/>
        </g>
        <g transform="matrix(1,0,0,1,0,-4.66902)">
            <rect x="4.675" y="6.772" width="1" height="0.368" style="fill:white;stroke:black;stroke-width:0.7px;"/>
        </g>
        <g transform="matrix(1,0,0,1,0,-0.923297)">
            <rect x="4.675" y="4.899" width="1" height="0.368" style="fill:white;stroke:black;stroke-width:0.7px;"/>
        </g>
        <g transform="matrix(1,0,0,1,0,2.82284)">
            <rect x="4.675" y="3.026" width="1" height="0.368" style="fill:white;stroke:black;stroke-width:0.7px;"/>
        </g>
        <g transform="matrix(1,0,0,1,0,-4.66902)">
            <rect x="2.075" y="6.772" width="0.53" height="0.368" style="fill:white;stroke:black;stroke-width:0.7px;"/>
        </g>
        <g transform="matrix(1,0,0,1,0,-0.923297)">
            <rect x="2.063" y="4.899" width="0.53" height="0.368" style="fill:white;stroke:black;stroke-width:0.7px;"/>
        </g>
    </g>
</svg>
